<svg width="800" height="300" viewBox="0 0 800 300" xmlns="http://www.w3.org/2000/svg">
  <!-- F1 Car Body - Ferrari style -->
  <g transform="translate(0,30)">
    <!-- Main Body -->
    <path d="M 200,150 C 250,120 350,120 450,120 L 600,120 C 650,120 680,140 700,160 L 720,180 C 730,190 730,200 720,210 L 700,220 C 650,240 600,240 550,240 L 300,240 C 250,240 220,220 200,200 L 180,180 C 170,170 170,160 180,150 Z" fill="#e10600" stroke="#000" stroke-width="2"/>
    
    <!-- Front Wing -->
    <path d="M 150,180 L 100,180 C 80,180 70,170 70,160 C 70,150 80,140 100,140 L 150,140 C 170,140 180,150 180,160 C 180,170 170,180 150,180 Z" fill="#333" stroke="#000" stroke-width="2"/>
    
    <!-- Rear Wing -->
    <rect x="680" y="100" width="60" height="40" rx="5" ry="5" fill="#333" stroke="#000" stroke-width="2"/>
    <rect x="690" y="80" width="40" height="10" rx="2" ry="2" fill="#333" stroke="#000" stroke-width="2"/>
    <rect x="690" y="150" width="40" height="10" rx="2" ry="2" fill="#333" stroke="#000" stroke-width="2"/>
    
    <!-- Cockpit -->
    <ellipse cx="400" cy="120" rx="50" ry="20" fill="#000" stroke="#333" stroke-width="2"/>
    
    <!-- Front Wheels -->
    <circle cx="200" cy="200" r="40" fill="#000" stroke="#333" stroke-width="10"/>
    
    <!-- Rear Wheels -->
    <circle cx="600" cy="200" r="40" fill="#000" stroke="#333" stroke-width="10"/>
    
    <!-- Details -->
    <path d="M 250,140 C 300,130 350,130 400,130 L 500,130 C 550,130 580,140 600,150" fill="none" stroke="#fff" stroke-width="1" opacity="0.5"/>
    <path d="M 250,230 C 300,220 350,220 400,220 L 500,220 C 550,220 580,210 600,200" fill="none" stroke="#fff" stroke-width="1" opacity="0.5"/>
    
    <!-- Ferrari Logo -->
    <rect x="380" y="170" width="40" height="20" rx="5" ry="5" fill="#000"/>
    <text x="400" y="185" font-family="Arial" font-size="14" fill="#fff" text-anchor="middle">SF-23</text>
  </g>
</svg>
